PathFileType	4	(X/Y/Z)	C:\Users\Basilio\Documents\Thesis Gigler\squatting_fais\c3dfiles\041\SLS_pre_back2\markers_experimental.trc
DataRate	CameraRate	NumFrames	NumMarkers	Units	OrigDataRate	OrigDataStartFrame	OrigNumFrames
200.000000	200.000000	4	63	mm	200.000000	688	1837
Frame#	Time	FHD			LBHD			RBHD			C7			T10			CLAV			LSHO			LUUPA			LMUPA			LDUPA			LLEP			LMEP			LRAD			LUL			LRFIN			RSHO			RUPA1			RMUPA			RDUPA			RLEP			RMEP			RRAD			RUL			RUFIN			LASI			RASI			USACR			LSACR			RSACR			LTHI1			LTHI2			LTHI3			LTHI4			LLFC			LMFC			LTIB1			LTIB2			LTIB3			LTIB4			LLMAL			LMMAL			LHEE			LMT1			LMT2			LMT5			RTHI			RTHI2			RTHI3			RTHI4			RLFC			RMFC			RTIB1			RTIB2			RTIB3			RTIB4			RLMAL			RMMAL			RHEE			RMT1			RMT2			RMT5			*61			*62			
		X1	Y1	Z1	X2	Y2	Z2	X3	Y3	Z3	X4	Y4	Z4	X5	Y5	Z5	X6	Y6	Z6	X7	Y7	Z7	X8	Y8	Z8	X9	Y9	Z9	X10	Y10	Z10	X11	Y11	Z11	X12	Y12	Z12	X13	Y13	Z13	X14	Y14	Z14	X15	Y15	Z15	X16	Y16	Z16	X17	Y17	Z17	X18	Y18	Z18	X19	Y19	Z19	X20	Y20	Z20	X21	Y21	Z21	X22	Y22	Z22	X23	Y23	Z23	X24	Y24	Z24	X25	Y25	Z25	X26	Y26	Z26	X27	Y27	Z27	X28	Y28	Z28	X29	Y29	Z29	X30	Y30	Z30	X31	Y31	Z31	X32	Y32	Z32	X33	Y33	Z33	X34	Y34	Z34	X35	Y35	Z35	X36	Y36	Z36	X37	Y37	Z37	X38	Y38	Z38	X39	Y39	Z39	X40	Y40	Z40	X41	Y41	Z41	X42	Y42	Z42	X43	Y43	Z43	X44	Y44	Z44	X45	Y45	Z45	X46	Y46	Z46	X47	Y47	Z47	X48	Y48	Z48	X49	Y49	Z49	X50	Y50	Z50	X51	Y51	Z51	X52	Y52	Z52	X53	Y53	Z53	X54	Y54	Z54	X55	Y55	Z55	X56	Y56	Z56	X57	Y57	Z57	X58	Y58	Z58	X59	Y59	Z59	X60	Y60	Z60	X61	Y61	Z61	X62	Y62	Z62	X63	Y63	Z63	

689	3.44	-128.6571807861328	1760.534423828125	-1106.901245117188	-303.7463989257813	1684.181640625	-1177.792236328125	-280.9343872070313	1690.354858398438	-1026.080078125	-340.4065246582032	1548.208984375	-1113.3935546875	-397.8500061035157	1243.234130859375	-1101.109008789063	-179.1849670410157	1485.822143554688	-1114.412353515625	-251.6428833007813	1556.815063476563	-1257.040649414063	-149.3062591552735	1526.844848632813	-1387.408203125	-105.211784362793	1544.119873046875	-1372.205688476563	-93.36656188964845	1523.311645507813	-1428.708374023438	-48.24267578125001	1520.106323242188	-1448.34130859375	-12.14580821990967	1450.53759765625	-1414.65625	232.649398803711	1550.994750976563	-1435.969604492188	217.2646179199219	1546.8505859375	-1508.25390625	298.4686584472657	1591.444091796875	-1450.82177734375	-249.0887451171876	1570.4072265625	-985.5772094726565	-97.10467529296878	1550.170654296875	-877.070495605469	-80.32173156738283	1578.478515625	-915.7252197265627	-29.88110542297364	1571.607543945313	-885.118103027344	14.91946697235108	1576.072021484375	-888.0877685546877	32.75321197509766	1496.866577148438	-918.6968994140627	271.6290893554688	1583.9580078125	-977.4556884765627	277.9492492675782	1593.399047851563	-902.6781005859377	351.3437194824219	1606.583374023438	-989.2222290039065	-230.0738067626954	1033.282348632813	-1181.743774414063	-264.9250793457032	1038.006958007813	-957.2205810546877	-414.7818603515626	1133.72314453125	-1098.552490234375	-428.1391906738282	1107.972045898438	-1126.891723632813	-437.7754821777345	1110.334228515625	-1072.653076171875	-328.0057678222657	829.9866333007815	-1248.829345703125	-288.8497924804688	756.7743530273439	-1232.785400390625	-241.7453308105469	765.0108642578126	-1219.20458984375	-312.1269226074219	702.0730590820314	-1220.984619140625	-286.5437316894532	527.2500610351564	-1183.143432617188	-296.9821472167969	521.6994628906251	-1064.69580078125	-282.9019775390626	340.9169616699219	-1104.409790039063	-326.6162719726563	296.2738647460938	-1166.78564453125	-289.8545837402344	291.0412292480469	-1136.051391601563	-309.2894897460938	218.9867095947266	-1096.53564453125	-373.4161987304688	128.9001770019532	-1133.928466796875	-346.2968750000001	137.8192443847657	-1048.484252929688	-444.0774230957032	112.8409957885742	-1094.792846679688	-241.2659454345704	60.34642410278322	-1049.470458984375	-229.9539184570313	56.04560470581056	-1093.109985351563	-272.8888854980469	42.9755973815918	-1151.622680664063	-433.7835388183595	807.5344848632815	-881.127868652344	-405.5928344726564	747.9129638671876	-868.9902343750002	-373.4438476562501	742.4595336914064	-872.5050048828127	-447.2268066406251	674.0150756835939	-876.1492309570315	-478.5075988769532	573.8716430664064	-869.761169433594	-461.1877441406251	527.7519531250001	-976.3388671875002	-597.0187988281251	459.0136718750001	-872.5260009765627	-703.0969238281251	493.4687500000001	-885.5704345703127	-684.3436279296876	452.9970703125001	-871.3798828125002	-710.5239257812501	403.8348083496095	-894.4599609375002	-844.428405761719	393.2409973144532	-900.023620605469	-797.945007324219	362.6776123046876	-966.2044677734377	-878.6290283203127	429.2630004882814	-967.733337402344	-827.249450683594	221.1841278076172	-944.1401977539065	-839.807067871094	220.6836853027344	-893.1821899414065	-887.170104980469	258.7565002441407	-865.0584716796877	nan	nan	nan	-4216.780761718751	853.3295898437502	-3945.624755859376	
690	3.445	-128.1962890625	1760.430419921875	-1106.966186523438	-303.6133728027344	1683.849975585938	-1177.688842773438	-280.3808898925782	1690.1416015625	-1026.030883789063	-340.1142272949219	1548.232666015625	-1113.28076171875	-397.8135681152345	1243.299926757813	-1101.20703125	-178.3267059326172	1485.819580078125	-1114.304809570313	-251.3247070312501	1556.8505859375	-1256.9169921875	-148.7158660888672	1526.9228515625	-1387.188842773438	-104.7575073242188	1544.223754882813	-1372.01171875	-93.01647949218751	1523.747192382813	-1428.54736328125	-47.71088027954102	1520.2822265625	-1448.079711914063	-11.59577941894531	1450.618530273438	-1414.445190429688	233.0150909423829	1550.993530273438	-1436.011962890625	217.7347869873047	1546.95751953125	-1508.127319335938	299.2049560546876	1591.418823242188	-1450.722045898438	-248.7872161865235	1570.189697265625	-985.4140625000002	-96.52669525146487	1550.284912109375	-877.2513427734377	-80.04085540771486	1578.40087890625	-915.8667602539065	-29.57194137573243	1571.726440429688	-885.1807861328127	15.30450534820557	1576.049560546875	-888.2202758789065	33.05750274658204	1496.7939453125	-918.8140258789065	272.1205749511719	1584.087646484375	-977.8220214843752	278.1517028808594	1593.479125976563	-902.9254150390627	351.7937927246094	1606.64501953125	-989.4617919921877	-230.2288970947266	1033.10498046875	-1181.64794921875	-265.4831237792969	1037.98974609375	-957.0698852539065	-414.4269409179689	1133.401489257813	-1098.744262695313	-428.376190185547	1108.004516601563	-1127.078857421875	-438.0134887695314	1110.432861328125	-1072.861328125	-328.0279846191407	829.9124755859377	-1248.817749023438	-288.8190612792969	756.7535400390626	-1232.715087890625	-241.6979370117188	765.0236206054689	-1219.004760742188	-312.0566406250001	702.1162719726564	-1220.948486328125	-286.3406066894532	527.2392578125001	-1183.028686523438	-297.0085144042969	521.6936035156251	-1064.570922851563	-282.8446350097657	340.9479064941407	-1104.297729492188	-326.4603576660157	296.2330322265626	-1166.744750976563	-289.8194580078126	291.0556640625001	-1135.992919921875	-309.2921447753907	218.9922027587891	-1096.433715820313	-373.3878479003907	128.8808288574219	-1133.89013671875	-346.3306579589844	137.8575439453125	-1048.463134765625	-444.0511474609376	112.7921981811524	-1094.800415039063	-241.1509399414063	60.40200805664064	-1048.935180664063	-229.9628295898438	56.04868698120119	-1093.120483398438	-272.6388549804688	42.87531280517579	-1151.498291015625	-434.6042480468751	807.5773925781252	-881.3281250000002	-406.7015075683595	748.0267333984376	-869.174499511719	-374.6310729980469	742.5086669921876	-872.646667480469	-448.5065002441407	674.0348510742189	-876.4511718750002	-479.8104248046876	573.9558715820314	-870.196228027344	-463.399139404297	528.1437988281251	-977.0696411132815	-598.4606323242189	459.2032470703126	-872.693786621094	-704.6030273437501	493.4459228515626	-885.7754516601565	-685.5891723632814	452.836151123047	-871.629333496094	-712.0676879882814	403.4337158203126	-895.3541259765627	-845.827575683594	393.0412597656251	-900.1406860351565	-799.3874511718752	362.7127685546876	-966.505554199219	-880.106628417969	429.1694641113282	-968.0372314453127	-828.4761962890627	220.6113281250001	-944.3997192382815	-841.0288085937502	220.4405364990235	-893.3621826171877	-888.1509399414065	258.5782470703126	-865.3762817382815	nan	nan	nan	-4217.071777343751	853.1737060546877	-3944.802490234376	
691	3.45	-127.9718627929688	1760.341186523438	-1107.011474609375	-303.2303161621094	1683.72216796875	-1177.596435546875	-280.1026916503907	1690.035766601563	-1025.917846679688	-339.8229675292969	1548.276733398438	-1113.225952148438	-397.8572692871095	1243.393310546875	-1101.2626953125	-177.8439331054688	1485.664184570313	-1114.142700195313	-250.9171905517579	1556.806030273438	-1256.802368164063	-148.0509948730469	1526.92919921875	-1387.06982421875	-104.3416290283203	1544.3095703125	-1371.780395507813	-92.41365051269533	1523.867065429688	-1428.377319335938	-47.26338577270509	1520.536376953125	-1447.806884765625	-11.13552570343018	1450.7734375	-1414.239013671875	233.2941284179688	1551.054077148438	-1435.9052734375	218.1389160156251	1547.1484375	-1508.027709960938	299.8190002441407	1591.51513671875	-1450.631713867188	-248.3866729736329	1570.26416015625	-985.4937133789065	-95.94466400146486	1550.298950195313	-877.403747558594	-79.62408447265626	1578.55859375	-916.0103149414065	-29.2750587463379	1571.741821289063	-885.334167480469	16.06582069396973	1576.189086914063	-888.7661743164065	33.32118225097657	1496.916625976563	-919.098327636719	272.6039733886719	1584.21240234375	-978.218200683594	278.4681091308594	1593.548095703125	-903.236511230469	352.2661743164063	1606.839721679688	-989.706970214844	-230.3667907714844	1032.967041015625	-1181.541137695313	-265.9814758300782	1037.7412109375	-956.884216308594	-414.6158447265626	1133.470703125	-1098.880493164063	-428.3792114257814	1107.9873046875	-1127.18505859375	-438.1512756347657	1110.56591796875	-1072.982055664063	-328.0325927734376	829.8034667968752	-1248.83447265625	-288.8071594238282	756.6764526367189	-1232.662231445313	-241.7728271484376	765.0083007812501	-1218.892456054688	-311.9799194335938	701.9957275390626	-1220.877319335938	-286.1484985351563	527.1967163085939	-1182.864501953125	-297.0775451660157	521.6907348632814	-1064.533081054688	-282.8144226074219	340.9609985351563	-1104.158813476563	-326.3032531738282	296.2067871093751	-1166.59912109375	-289.7456054687501	291.0670776367188	-1135.869384765625	-309.3055114746094	219.031723022461	-1096.31884765625	-373.3321228027344	128.8606872558594	-1133.88330078125	-346.3112487792969	137.827865600586	-1048.415161132813	-444.0903930664064	112.8552474975586	-1094.8037109375	-241.1273803710938	60.41253662109376	-1048.909423828125	-229.9413757324219	56.0196876525879	-1093.081298828125	-272.8737792968751	42.97570419311524	-1151.583862304688	-435.5243530273439	807.6379394531252	-881.6395263671877	-407.6381225585939	747.9206542968751	-869.3098754882815	-375.7170715332032	742.4182128906251	-872.8079223632815	-449.5191955566407	674.1475219726564	-876.8584594726565	-481.0180053710939	574.0891723632814	-870.6896972656252	-464.8021850585939	528.3543090820314	-977.4183349609377	-599.8856201171876	459.211639404297	-873.1486816406252	-705.9257202148439	493.3871154785157	-886.2055664062502	-687.0550537109376	452.9074707031251	-871.9395751953127	-713.4271850585939	403.3243408203126	-895.6752929687502	-847.0968017578127	392.8887939453126	-900.565124511719	-800.6503906250002	362.6289062500001	-966.815124511719	-881.4077148437502	429.004119873047	-968.326110839844	-829.513366699219	220.3546447753907	-944.7546997070315	-842.0661621093752	220.1707916259766	-893.8101806640627	-889.564880371094	258.2328491210938	-865.6708984375002	nan	nan	nan	-4216.795410156251	853.3328247070315	-3945.441894531251	
692	3.455	-127.6306228637696	1760.201171875	-1107.110961914063	-302.9296264648438	1683.550659179688	-1177.480224609375	-279.8776855468751	1689.924682617188	-1025.818237304688	-339.4530944824219	1548.231201171875	-1113.164184570313	-397.8529663085939	1243.506103515625	-1101.370361328125	-177.4193725585938	1485.623291015625	-1113.983154296875	-250.5328216552735	1556.7529296875	-1256.6708984375	-147.614013671875	1527.075317382813	-1386.920776367188	-103.8415908813477	1544.443969726563	-1371.585205078125	-91.79927062988283	1523.98583984375	-1428.183715820313	-46.83411026000977	1520.63916015625	-1447.592651367188	-10.66052532196045	1450.882446289063	-1414.1162109375	233.9384155273438	1551.11083984375	-1435.839965820313	218.480209350586	1547.390258789063	-1507.870239257813	300.2392883300782	1591.565185546875	-1450.5146484375	-248.0071105957032	1570.06201171875	-985.4030761718752	-95.56024169921876	1550.3310546875	-877.523864746094	-79.36661529541017	1578.61181640625	-916.1231079101565	-28.93691062927247	1571.699584960938	-885.5925292968752	16.37393569946289	1576.23486328125	-888.9697265625002	33.67393875122071	1496.9697265625	-919.4733886718752	272.9939575195313	1584.302978515625	-978.5183105468752	278.8234863281251	1593.631103515625	-903.4563598632815	352.9199523925782	1607.022094726563	-989.9714965820315	-230.5119018554688	1032.861450195313	-1181.424926757813	-266.3855895996094	1037.760375976563	-956.8836669921877	-415.0923156738282	1133.795776367188	-1098.98876953125	-428.5692443847657	1108.090454101563	-1127.388305664063	-438.3154907226564	1110.644775390625	-1073.128173828125	-328.0249023437501	829.7703247070315	-1248.872192382813	-288.7914123535157	756.5967407226564	-1232.56005859375	-241.7331237792969	764.9353637695314	-1218.646118164063	-311.9488830566407	702.0390625000001	-1220.967407226563	-285.9395751953126	527.0974121093751	-1182.748657226563	-297.2270812988282	521.6306762695314	-1064.370971679688	-282.7948913574219	340.9565429687501	-1103.977172851563	-326.1683044433594	296.2474975585938	-1166.617797851563	-289.9141540527344	291.2727661132813	-1135.689697265625	-309.3373718261719	219.0771636962891	-1096.170654296875	-373.3235473632813	128.8670196533203	-1133.879516601563	-346.3821105957032	137.8129577636719	-1048.371704101563	-444.043670654297	112.8489608764649	-1094.832885742188	-241.1300048828126	60.3693084716797	-1048.98583984375	-229.9529724121094	56.02823638916017	-1093.070190429688	-272.6757812500001	42.92777633666993	-1151.431396484375	-436.5435791015626	807.6533203125002	-881.878112792969	-408.8487243652345	748.1486206054689	-869.441589355469	-376.5634155273438	742.3834228515626	-873.195495605469	-450.7293701171876	674.2689819335939	-877.1655273437502	-482.587615966797	574.1625976562501	-870.8698730468752	-465.3335266113282	528.1848754882814	-977.4863891601565	-601.0357055664064	459.2033081054689	-873.6102294921877	-707.2518920898439	493.3638000488282	-886.5211181640627	-688.3782348632814	452.9303283691407	-872.2268676757815	-714.6497802734376	403.248016357422	-896.3870239257815	-848.5118408203127	392.634490966797	-900.6629028320315	-801.8585205078127	362.3625793457032	-967.225036621094	-882.7951660156252	428.8731994628907	-968.507507324219	-830.8020629882815	220.4717254638672	-945.131530761719	-843.2589111328127	220.0852966308594	-894.4711914062502	-890.815124511719	258.0818786621094	-866.0014648437502	nan	nan	nan	-4217.322753906251	853.2597656250002	-3944.777343750001	
